<svg xmlns="http://www.w3.org/2000/svg" xmlns:xlink="http://www.w3.org/1999/xlink" viewBox="0 0 147.66 40"><defs><style>.cls-1{fill:url(#linear-gradient);}.cls-2{fill:url(#linear-gradient-2);}.cls-3{fill:#00c9ff;}.cls-4{fill:#2b2b2b;}</style><linearGradient id="linear-gradient" x1="1.02" y1="28.09" x2="24.86" y2="28.09" gradientUnits="userSpaceOnUse"><stop offset="0" stop-color="#008de3"/><stop offset="0.32" stop-color="#00c9ff"/><stop offset="0.7" stop-color="#00c2f6"/></linearGradient><linearGradient id="linear-gradient-2" x1="4.73" y1="12.38" x2="38.69" y2="12.38" xlink:href="#linear-gradient"/></defs><g id="Layer_2" data-name="Layer 2"><g id="Layer_1-2" data-name="Layer 1"><path class="cls-1" d="M23.11,40a1.77,1.77,0,0,1-.91-.26l-6-3.68A2.81,2.81,0,0,1,15,34.53l-1.25-4a.71.71,0,0,0-.41-.44L5.15,26.75a4.66,4.66,0,0,1-2.8-3.42L1,16.47l1.51-.29L3.86,23a3.1,3.1,0,0,0,1.87,2.29L14,28.72a2.27,2.27,0,0,1,1.29,1.4l1.25,3.94a1.24,1.24,0,0,0,.54.69l6,3.68a.18.18,0,0,0,.2,0,.18.18,0,0,0,.11-.17V36.81a.23.23,0,0,0-.07-.15l-3.39-3a2.78,2.78,0,0,1-.95-2.1V24.46a.76.76,0,0,0-.11-.38l-1.84-3,1.31-.8,1.85,3a2.33,2.33,0,0,1,.33,1.18v7.12a1.25,1.25,0,0,0,.42.94l3.4,3a1.77,1.77,0,0,1,.59,1.31v1.45a1.73,1.73,0,0,1-.9,1.52A1.68,1.68,0,0,1,23.11,40Z"/><path class="cls-2" d="M29,24.76l-.92-1.24,5.44-4h1.73a1.9,1.9,0,0,0,1.9-1.73,1.85,1.85,0,0,0-.32-1.23L35.16,14a4.3,4.3,0,0,0-1.95-1.6l-3.79-1.6L27.65,6.06a3.2,3.2,0,0,0-2-1.93l-7-2.3L20.4,6a6.1,6.1,0,0,0,1.46,2.12l1.68,1.57a2.25,2.25,0,0,1,.66,2.15,2.23,2.23,0,0,1-1.53,1.65l-1.09.34a2.23,2.23,0,0,1-1.33,0l-12-3.66a.75.75,0,0,0-.53,0L5.41,11.37,4.73,10,7.05,8.84a2.27,2.27,0,0,1,1.66-.13l12,3.65a.67.67,0,0,0,.42,0L22.21,12a.7.7,0,0,0,.49-.52.72.72,0,0,0-.21-.68L20.81,9.24A7.41,7.41,0,0,1,19,6.58L16.89,1.5A1.06,1.06,0,0,1,17.11.35,1,1,0,0,1,18.24.06l7.9,2.61a4.74,4.74,0,0,1,2.95,2.85l1.54,4.16L33.81,11a6,6,0,0,1,2.63,2.16l1.66,2.49A3.44,3.44,0,0,1,35.24,21H34Z"/><rect class="cls-3" y="14.33" width="3.11" height="3.11" rx="1.55"/><rect class="cls-3" x="3.52" y="9.22" width="3.11" height="3.11" rx="1.55"/><rect class="cls-3" x="15.48" y="18.71" width="3.11" height="3.11" rx="1.55"/><rect class="cls-3" x="27.06" y="22.58" width="3.11" height="3.11" rx="1.55"/><path class="cls-4" d="M53.68,22.15h3.61l.92,2H53.68a4.7,4.7,0,1,1,0-9.39h4.53l-.92,2H53.68a2.71,2.71,0,1,0,0,5.41Z"/><path class="cls-4" d="M67.56,19.44a4.71,4.71,0,0,1-4.7,4.7h-.32a4.7,4.7,0,0,1,0-9.39h.32A4.71,4.71,0,0,1,67.56,19.44Zm-2,0a2.71,2.71,0,0,0-2.71-2.7h-.32a2.71,2.71,0,0,0,0,5.41h.32A2.72,2.72,0,0,0,65.57,19.44Z"/><path class="cls-4" d="M77.65,19.44A4.71,4.71,0,0,1,73,24.14H68.43V17.47h2v4.68H73a2.71,2.71,0,0,0,0-5.41H68.43l.91-2H73A4.7,4.7,0,0,1,77.65,19.44Z"/><path class="cls-4" d="M86.12,16.74H78.47l.92-2H87Zm0,5.41.91,2H78.47V17.47h2v1h6v2h-6v1.71Z"/><path class="cls-4" d="M96.59,21.4a3,3,0,0,1-3.14,2.74H87.57l.91-2h5c.61,0,1.15-.35,1.15-.75s-.44-.67-1-.73h0l-3.3-.47a2.91,2.91,0,0,1-2.74-2.72,3,3,0,0,1,3.15-2.73H96l-.91,2H90.71c-.62,0-1.16.35-1.16.74s.44.68,1,.74h0l3.29.47A2.9,2.9,0,0,1,96.59,21.4Z"/><path class="cls-4" d="M105.56,19.44a2.84,2.84,0,0,1-2.15,4.7h-6V17.47h2v4.68h4a.86.86,0,0,0,.85-.86.85.85,0,0,0-.85-.85h-3.29v-2h3.29a.86.86,0,0,0,.85-.86.85.85,0,0,0-.85-.85h-6l.92-2h5.1a2.84,2.84,0,0,1,2.15,4.69Z"/><path class="cls-4" d="M116.85,14.75v4.69a4.7,4.7,0,0,1-4.69,4.7,5,5,0,0,1-5-5V14.75h2v4.37a3,3,0,0,0,3,3,2.71,2.71,0,0,0,2.7-2.71V14.75Z"/><path class="cls-4" d="M126.91,18.34v5.8h-2v-5.8a1.6,1.6,0,0,0-1.6-1.6h-5.41l.91-2h4.5A3.59,3.59,0,0,1,126.91,18.34Zm-9,5.8V17.47h2v6.67Z"/><path class="cls-4" d="M137.05,18.34v5.8h-2v-5.8a1.61,1.61,0,0,0-1.61-1.6h-5.4l.91-2h4.49A3.6,3.6,0,0,1,137.05,18.34Zm-9,5.8V17.47h2v6.67Z"/><path class="cls-4" d="M147.66,14.75l-3.85,6.34h-.25v3.05h-2V21.09h-.24l-3.85-6.34h2.32l2.65,4.35h.24l2.64-4.35Z"/></g></g></svg>